<?xml version="1.0" encoding="utf-8"?>
<svg xmlns="http://www.w3.org/2000/svg"
	xmlns:xlink="http://www.w3.org/1999/xlink"
	width="56px" height="119px" viewBox="0 0 56 119">
<path fillRule="evenodd" d="M 24.5-0C 24.5-0 31.5-0 31.5-0 45.03-0 56 10.97 56 24.5 56 24.5 56 94.5 56 94.5 56 108.03 45.03 119 31.5 119 31.5 119 24.5 119 24.5 119 10.97 119-0 108.03-0 94.5-0 94.5-0 24.5-0 24.5-0 10.97 10.97-0 24.5-0Z" fill="rgb(0,0,0)" opacity="0.50"/><path fillRule="evenodd" d="M 37.91 65.9C 35.43 68.4 31.84 70 28.04 70 28.04 70 27.96 70 27.96 70 24.09 70 20.79 68.64 18.09 65.92 15.35 63.15 14 59.82 14 55.96 14 55.96 14 42.6 14 42.6 14 35.52 19.65 29.15 26.67 28.67 26.57 26.2 26 24.45 24.94 23.51 23.93 22.62 22.75 22.76 22.48 22.76 22.48 22.76 22.43 22.76 22.43 22.76 21.72 22.85 21.02 22.41 20.9 21.66 20.77 20.9 21.24 20.22 21.99 20.12 22.09 20.07 22.36 20.05 22.77 20.02 23.19 20 23.8 20.12 24.58 20.34 25.36 20.56 26.04 20.97 26.67 21.51 28.36 22.97 29.28 25.32 29.38 28.67 32.96 29.03 35.96 30.54 38.37 33.21 40.78 35.87 42 39.02 42 42.6 42 42.6 42 55.96 42 55.96 42 59.77 40.4 63.37 37.91 65.9ZM 39.3 42.6C 39.3 39.65 38.3 37.09 36.27 34.91 34.25 32.74 31.8 31.3 28.86 31.3 28.86 31.3 27.96 31.3 27.96 31.3 27.96 31.3 27.38 31.3 27.38 31.3 24.38 31.3 21.88 32.63 19.8 34.82 17.73 37 16.7 39.6 16.7 42.6 16.7 42.6 16.7 55.96 16.7 55.96 16.7 59.06 17.83 61.75 20.04 63.97 22.26 66.19 24.94 67.27 28.04 67.31 34.15 67.39 39.3 62.06 39.3 55.96 39.3 55.96 39.3 42.6 39.3 42.6ZM 30.67 46.29C 30.06 46.9 29.3 47.22 28.43 47.22 28.43 47.22 27.62 47.22 27.62 47.22 26.72 47.22 25.96 46.9 25.33 46.27 24.7 45.63 24.38 44.87 24.38 44.02 24.38 44.02 24.38 38.36 24.38 38.36 24.38 37.45 24.7 36.68 25.33 36.06 25.97 35.43 26.72 35.11 27.62 35.11 27.62 35.11 28.43 35.11 28.43 35.11 29.3 35.11 30.05 35.43 30.67 36.06 31.3 36.7 31.62 37.45 31.62 38.36 31.62 38.36 31.62 44.02 31.62 44.02 31.62 44.9 31.3 45.66 30.67 46.29ZM 28.91 38.36C 28.91 38.06 28.69 37.87 28.43 37.87 28.43 37.87 27.62 37.87 27.62 37.87 27.33 37.87 27.09 38.06 27.09 38.36 27.09 38.36 27.09 44.02 27.09 44.02 27.09 44.14 27.13 44.27 27.23 44.36 27.43 44.46 27.55 44.51 27.62 44.51 27.62 44.51 28.43 44.51 28.43 44.51 28.69 44.51 28.91 44.29 28.91 44.02 28.91 44.02 28.91 38.36 28.91 38.36Z" fill="rgb(255,255,255)"/><path fillRule="evenodd" d="M 19.59 77.41C 19.2 77.02 19.2 76.39 19.59 76 19.98 75.61 20.61 75.61 21 76 21 76 28 83 28 83 28 83 35 76 35 76 35.39 75.61 36.02 75.61 36.41 76 36.8 76.39 36.8 77.02 36.41 77.41 36.41 77.41 29.41 84.41 29.41 84.41 29.41 84.41 28 85.83 28 85.83 28 85.83 26.59 84.41 26.59 84.41 26.59 84.41 19.59 77.41 19.59 77.41" fill="rgb(255,255,255)"/><path fillRule="evenodd" d="M 19.59 85.41C 19.2 85.02 19.2 84.39 19.59 84 19.98 83.61 20.61 83.61 21 84 21 84 28 91 28 91 28 91 35 84 35 84 35.39 83.61 36.02 83.61 36.41 84 36.8 84.39 36.8 85.02 36.41 85.41 36.41 85.41 29.41 92.41 29.41 92.41 29.41 92.41 28 93.83 28 93.83 28 93.83 26.59 92.41 26.59 92.41 26.59 92.41 19.59 85.41 19.59 85.41" fill="rgb(255,255,255)" opacity="0.50"/><path fillRule="evenodd" d="M 19.59 93.41C 19.2 93.02 19.2 92.39 19.59 92 19.98 91.61 20.61 91.61 21 92 21 92 28 99 28 99 28 99 35 92 35 92 35.39 91.61 36.02 91.61 36.41 92 36.8 92.39 36.8 93.02 36.41 93.41 36.41 93.41 29.41 100.41 29.41 100.41 29.41 100.41 28 101.83 28 101.83 28 101.83 26.59 100.41 26.59 100.41 26.59 100.41 19.59 93.41 19.59 93.41" fill="rgb(255,255,255)" opacity="0.15"/></svg>