<svg xmlns="http://www.w3.org/2000/svg" viewBox="0 0 600 1000" height="200" width="200"><path d="M0 1066.667h1066.667V0H0z" fill="transparent"/><path d="M568.836 434.921c-1.99-23.328 1.265-35.624 7.593-55.517 6.331-19.892 9.587-14.828 9.587-14.828l-1.087 49.31c0 32.309-16.093 21.035-16.093 21.035zm-12.216-26.337s-172.03-2.12-203.041 5.301c0 0 2.916-39.229 16.698-55.664 0 0 177.33-16.169 205.163-5.566 0 0-14.05 41.35-18.82 55.929zm-29.093 135.475c-1.62 8.473-6.73 17.944-21.934 17.446-15.204-.498-68.664 4.986-63.305-7.726 0 0 2.368-9.971 20.063-13.584 17.696-3.612 57.449-3.988 57.449-3.988s9.345-.623 7.727 7.852zm63.106-177.998c3 1.143 10.003 4.858 10.003 4.858s2.143 2.142 2.285 7c.142 4.858 0 8.286 0 8.286h-14.88l.022-5.428v-12.716s-.43-3.144 2.57-2zm48.823 23.73s.128-2.419 2.419-1.272c2.289 1.145 8.146 4.581 8.146 4.581s1.526.89 1.526 5.219V432.3s.256 3.056-3.183 3.056c-3.435 0-4.955-.436-6.49-1.018-1.453-.552-1.783-.764-2.418-5.728-.636-4.964 0-38.82 0-38.82zm23.517 157.548c-.604-6.872-13.372-6.415-13.372-6.415l-68.716 2.52c-.458-2.061-2.978-10.765-2.978-10.765s46.27-.23 65.741-1.603c19.47-1.376 17.453-11.967 17.453-11.967s2.263-87.542 1.811-104.282c-.45-16.739-4.297-79.852-5.881-92.972-1.586-13.12-1.583-29.632-14.706-34.383-13.12-4.75-26.916-7.917-36.642-8.823-9.727-.905-87.771 0-119.44 5.43-31.67 5.428-49.994 9.954-59.947 29.182-9.953 19.228-15.835 17.644-15.835 17.644-7.464 1.131-32.348 7.24-36.872 9.502-4.525 2.261-11.762 10.632-13.572 18.096-1.81 7.465 3.619 6.334 3.619 6.334-10.18 20.584-12.985 49.54-12.985 49.54-5.812 1.595-11.68 3.964-17.227 6.627v-30.405a3.428 3.428 0 0 0-3.428-3.428h-9.15a3.429 3.429 0 0 0-3.429 3.428v38.278c0 .308.055.6.131.884-8.964 5.548-15.004 10.272-15.004 10.272-8.101 7.259-13.533 15.366-17.156 23.268 5.153-6.449 13.087-9.597 39.383-10.066 32.277-.576 61.096-2.882 92.797 0 31.701 2.881 25.361 18.641 25.361 28.917 0 10.276-6.34 55.233-12.68 70.797-2.729 6.695-2.876 10.048-4.729 11.788 19.736 2.351 104.824-1.134 104.824-1.134 3.06-13.058 4.163-15.531 6.456-22.632 2.288-7.1 20.784-36.88 35.15-4.855 14.091 31.408 9.162 76.736 9.162 76.736 4.581-.23 19.472-2.52 19.472-2.52s38.71-11.455 51.31-15.12c12.598-3.664 11.08-10.537 11.08-10.537s.602-30.466 0-37.336M278.159 502.584c-9.78 5.968-15.967 19.116-19.78 31.443 4.037-.046 17.516.25 20.137 6.169 3.09 6.979 2.143 15.203-2.344 16.2-3.873.861-18.708-.441-22.683-.812-.524 3.41-.729 5.505-.729 5.505l36.479.718c-3.674-4.15-8.92-15.956-10.723-49.431 0 0-.256-4.063-.357-9.792" fill="#187282"/><path d="M667.803 414.827c.452 16.74-1.811 104.282-1.811 104.282s.524 2.746-1.53 5.62l17.626.346V289.396l-28.893 1.775c7.196 6.985 7.43 19.966 8.724 30.684 1.584 13.12 5.43 76.233 5.884 92.972M293.397 554.821h18.294a3.429 3.429 0 0 0 3.429-3.428v-76.957a3.43 3.43 0 0 0-3.43-3.43h-18.293a3.429 3.429 0 0 0-3.428 3.43v76.957a3.428 3.428 0 0 0 3.428 3.428M396.396 554.821h23.75a3.428 3.428 0 0 0 3.429-3.428v-76.957a3.43 3.43 0 0 0-3.43-3.43h-23.749a3.429 3.429 0 0 0-3.428 3.43v76.957a3.428 3.428 0 0 0 3.428 3.428M322.141 554.821h25.08a3.429 3.429 0 0 0 3.43-3.428v-76.957a3.43 3.43 0 0 0-3.43-3.43h-25.08a3.43 3.43 0 0 0-3.429 3.43v76.957a3.429 3.429 0 0 0 3.43 3.428M358.87 554.821h25.08a3.428 3.428 0 0 0 3.429-3.428v-76.957a3.43 3.43 0 0 0-3.43-3.43h-25.08a3.429 3.429 0 0 0-3.428 3.43v76.957a3.428 3.428 0 0 0 3.428 3.428M460.055 615.481a3.88 3.88 0 0 1-3.88 3.88h-21.078a3.88 3.88 0 0 1-3.88-3.88v-12.51a3.88 3.88 0 0 1 3.88-3.882h21.078a3.88 3.88 0 0 1 3.88 3.882zm-40.82-.841a4.415 4.415 0 0 1-4.523 4.305l-23.177-.572a4.416 4.416 0 0 1-4.304-4.522l.305-12.396a4.416 4.416 0 0 1 4.523-4.306l23.176.572a4.415 4.415 0 0 1 4.305 4.524zm-40.667-2.688a3.88 3.88 0 0 1-3.985 3.77l-48.448-1.338a3.882 3.882 0 0 1-3.772-3.985l.325-11.752a3.88 3.88 0 0 1 3.985-3.771l48.448 1.339a3.877 3.877 0 0 1 3.771 3.985zm-104.005-1.761l-11.46-.662a3.427 3.427 0 0 1-3.226-3.618l.635-11.039a3.429 3.429 0 0 1 3.62-3.227l11.46.66a3.429 3.429 0 0 1 3.227 3.619l-.636 11.04a3.429 3.429 0 0 1-3.62 3.227zm16.062-17.059l20.355.905a3.88 3.88 0 0 1 3.705 4.048l-.484 10.887a3.882 3.882 0 0 1-4.049 3.705l-20.355-.905a3.88 3.88 0 0 1-3.704-4.05l.484-10.886a3.879 3.879 0 0 1 4.048-3.704zm189.882-21.15c-8.131 0-126.174-2.709-161.795-3.913-35.62-1.205-69.172-3.62-69.172-3.62-1.507 7.22-.904 48.403-.904 48.403 2.807 1.713 14.847 3.175 29.888 4.368 4.28 29.796 18.845 51.74 36.167 51.74 16.596 0 30.661-20.155 35.573-48.057 3.28.109 5.177.165 5.177.165s105.792 3.012 120.85 3.012c15.056 0 26.198-1.808 26.198-1.808l26.214-1.42c-2.442-25.347 1.641-52.636 1.641-52.636-2.859.448-41.707 3.767-49.837 3.767M554.904 529.219c-12.284 0-22.239 31.282-22.239 69.869 0 38.59 9.955 69.872 22.239 69.872 12.281 0 22.236-31.283 22.236-69.872 0-38.587-9.955-69.87-22.236-69.87M687.82 529.64c-5.25 0-9.505 19.132-9.505 42.732 0 23.6 4.256 42.732 9.505 42.732 5.25 0 9.505-19.132 9.505-42.732 0-23.6-4.254-42.732-9.505-42.732M709.3 528.784c-4.721 0-8.548 17.2-8.548 38.419 0 21.217 3.827 38.417 8.548 38.417 4.719 0 8.544-17.2 8.544-38.417 0-21.219-3.825-38.419-8.544-38.419M794.67 531.224c-2.089 0-3.782 9.587-3.782 21.415 0 11.825 1.693 21.412 3.781 21.412s3.782-9.587 3.782-21.412c0-11.828-1.694-21.415-3.782-21.415M802.336 531.224c-1.197 0-2.172 8.832-2.172 19.727 0 10.893.975 19.725 2.172 19.725 1.2 0 2.172-8.832 2.172-19.725 0-10.895-.972-19.727-2.172-19.727M686.375 289.396v235.679l133.794 4.565V416.799L686.375 289.396M723.539 563.667l64.396-13.879s-.23-2.824.098-5.841c.238-2.184.626-5.15.626-5.15l-67.232 2.272c1.336 7.055 2.112 22.598 2.112 22.598" fill="#187282"/><path d="M846.399 554.821s-1.636 2.008-4.992 5.518c-3.374 3.488-8.396 8.562-15.232 14.542a340.634 340.634 0 0 1-25.618 20.451c-2.568 1.856-5.213 3.784-7.997 5.677l-4.216 2.914-4.388 2.913c-1.487.975-2.98 1.99-4.521 2.967-1.55.958-3.12 1.932-4.708 2.914-3.162 1.996-6.456 3.936-9.826 5.914-13.472 7.912-28.456 15.866-44.768 23.305a548.477 548.477 0 0 1-52.433 20.743c-4.612 1.64-9.33 3.076-14.07 4.572-4.729 1.53-9.549 2.873-14.39 4.254l-7.292 2.063-7.372 1.907-7.42 1.892c-2.484.609-4.99 1.146-7.492 1.725-10.003 2.345-20.153 4.397-30.375 6.27l-15.393 2.614c-5.167.696-10.339 1.393-15.51 2.092-10.263 1.268-20.367 2.861-30.847 3.568l-15.552 1.31c-5.171.415-10.328.9-15.446 1.02-10.244.383-20.402.903-30.445 1.053-10.041-.05-19.961-.102-29.719-.152l-28.702-1.307c-9.36-.696-18.507-1.5-27.403-2.265-4.45-.386-8.815-1.027-13.125-1.514-4.306-.529-8.544-1.052-12.714-1.565a127.88 127.88 0 0 1-6.181-.896c-2.039-.323-4.059-.645-6.06-.963l-11.77-1.873c-3.851-.56-7.583-1.385-11.247-2.041-3.658-.7-7.231-1.386-10.714-2.055-6.949-1.42-13.493-3.015-19.657-4.377-3.088-.66-6.037-1.498-8.903-2.199a622.451 622.451 0 0 1-8.256-2.133c-5.276-1.431-10.084-2.89-14.438-4.128-4.344-1.292-8.191-2.555-11.538-3.634-3.325-1.148-6.154-2.122-8.448-2.914-4.561-1.658-6.952-2.639-6.952-2.639l1.839.47 5.375 1.287 8.693 1.932c3.433.7 7.379 1.507 11.796 2.41 4.439.806 9.327 1.785 14.679 2.69 5.373.816 11.128 1.931 17.328 2.848 6.212.859 12.789 1.914 19.762 2.763 6.984.773 14.283 1.848 21.944 2.619l11.73 1.116 6.029.574c2.027.207 4.075.39 6.147.499 8.281.503 16.816 1.25 25.609 1.71 8.804.307 17.832.793 27.065 1.08l28.267.315c9.588-.204 19.336-.409 29.204-.618 2.467-.006 4.936-.206 7.413-.34l7.451-.438 15.008-.809c5.04-.184 10.03-.73 15.048-1.205l15.093-1.392c10.04-.696 20.332-2.374 30.546-3.667l15.164-1.97 15.068-2.487c9.994-1.826 19.965-3.598 29.765-5.784 2.453-.532 4.91-1.023 7.347-1.586 2.432-.578 4.856-1.156 7.276-1.733l7.249-1.697 7.167-1.854c4.76-1.24 9.502-2.444 14.156-3.834 4.658-1.362 9.328-2.582 13.877-4.052 18.295-5.58 35.75-11.747 52.032-18.299 16.276-6.557 31.427-13.399 45.125-20.31 13.672-6.96 25.982-13.823 36.651-20.334 10.637-6.552 19.74-12.59 27.028-17.86 7.273-5.292 12.879-9.633 16.581-12.739 3.722-3.085 5.618-4.848 5.618-4.848" fill="#187282"/></svg>