<?xml version="1.0" encoding="utf-8"?>
<svg xmlns="http://www.w3.org/2000/svg"
	xmlns:xlink="http://www.w3.org/1999/xlink"
	width="22px" height="38px" viewBox="0 0 22 38">
<path fillRule="evenodd" d="M 22 19C 21.99 19.03 22 19.06 21.99 19.1 21.98 19.45 21.82 19.8 21.52 19.99 21.52 19.99 1.46 37.86 1.46 37.86 0.99 38.15 0.39 37.98 0.12 37.47-0.15 36.96 0.01 36.3 0.48 36.01 0.48 36.01 19.58 19 19.58 19 19.58 19 0.48 1.99 0.48 1.99 0.01 1.69-0.15 1.04 0.12 0.53 0.39 0.02 0.99-0.15 1.46 0.14 1.46 0.14 21.52 18.01 21.52 18.01 21.82 18.2 21.98 18.54 21.99 18.9 22 18.93 21.99 18.97 22 19Z" fill="rgb(229,229,229)"/></svg>