<?xml version="1.0" encoding="utf-8"?>
<svg xmlns="http://www.w3.org/2000/svg"
	xmlns:xlink="http://www.w3.org/1999/xlink"
	width="22px" height="38px" viewBox="0 0 22 38">
<path fillRule="evenodd" d="M 21.52 1.99C 21.52 1.99 2.42 19 2.42 19 2.42 19 21.52 36.01 21.52 36.01 21.99 36.3 22.15 36.96 21.88 37.47 21.61 37.98 21.01 38.15 20.54 37.86 20.54 37.86 0.48 19.99 0.48 19.99 0.18 19.8 0.02 19.45 0.01 19.1 0 19.06 0.01 19.03 0 19 0.01 18.97 0 18.93 0.01 18.9 0.02 18.54 0.18 18.2 0.48 18.01 0.48 18.01 20.54 0.14 20.54 0.14 21.01-0.15 21.61 0.02 21.88 0.53 22.15 1.04 21.99 1.69 21.52 1.99Z" fill="rgb(229,229,229)"/></svg>