<svg xmlns="http://www.w3.org/2000/svg" viewBox="0 0 428 441" enable-background="new 0 0 428 441"><style type="text/css">.st0{fill:#203467;}</style><path d="M366.8 434.8h-115V283.2l65.4-1.5 5.4-49.3-70.4-.5-.6-43.6v-.2c.4-18.8 13.1-31.6 32.5-32.6h.4l39.5.5v-54.8h-70.6c-.2 0-2.2 0-3 0-14 1.1-28.2 9.7-39.3 23.4-10.5 13.1-16.5 29.5-15.8 42.7v66l-50.5.5v49.5h50.5v151.4H61.9C27.8 434.8 0 407.1 0 372.9V68.1C0 33.9 27.8 6.2 61.9 6.2h304.9c34.1 0 61.9 27.8 61.9 61.9v.2l-5 304.8c-.1 35.7-24 61.7-56.9 61.7zm-91-23.9h90.9c22.6 0 32.9-19.7 32.9-37.9v-.2l5-304.7c0-20.9-17.1-37.8-37.9-37.8H61.9C41 30.1 24 47.2 24 68.1V373c0 20.9 17 37.9 37.9 37.9h109.4V307.4h-50.5v-97.2l50.5-.5v-41.4c-1.9-38.6 32.2-87.6 77.6-91 .3 0 .7-.1 4.5-.1H348v103l-62.9-.8c-8 .5-9.3 4.6-9.5 9l.2 19.7 73.4.5-10.6 96.5-63 1.5v104.3zm-25.2-309.7z" class="st0"/></svg>