<svg xmlns="http://www.w3.org/2000/svg" viewBox="0 0 428 441" enable-background="new 0 0 428 441"><style type="text/css">.st0{fill:#203467;}</style><path d="M366.4 434.9H61.6c-34.2 0-62-27.8-62-62V68.1c0-34.2 27.8-62 62-62h304.9c34.2 0 62 27.8 62 62V373c-.1 34.1-27.9 61.9-62.1 61.9zM61.6 30.1c-21 0-38 17-38 38V373c0 21 17 38 38 38h304.9c21 0 38-17 38-38V68.1c0-21-17-38-38-38H61.6zm151.2 306.6c-62.7 0-113.7-51-113.7-113.7s51-113.7 113.7-113.7 113.7 51 113.7 113.7-51 113.7-113.7 113.7zm0-203.5c-49.5 0-89.7 40.3-89.7 89.7s40.3 89.7 89.7 89.7 89.7-40.3 89.7-89.7-40.3-89.7-89.7-89.7zm126 0c-20 0-36.3-16.3-36.3-36.3 0-20 16.3-36.3 36.3-36.3s36.3 16.3 36.3 36.3c0 20-16.3 36.3-36.3 36.3zm0-48.6c-6.8 0-12.3 5.5-12.3 12.3 0 6.8 5.5 12.3 12.3 12.3 6.8 0 12.3-5.5 12.3-12.3 0-6.7-5.6-12.3-12.3-12.3z" class="st0"/></svg>