<svg xmlns="http://www.w3.org/2000/svg" viewBox="0 0 428 441" enable-background="new 0 0 428 441"><style type="text/css">.st0{fill-rule:evenodd;clip-rule:evenodd;fill:#052F6A;}</style><path id="Forma_1" d="M365.5 64.7C325 23 271.2 0 214 0S103 23 62.5 64.7C22.2 106.4 0 161.7 0 220.5c0 58.8 22.2 114.1 62.5 155.8C103 418 156.8 441 214 441c6.9 0 12.5-5.6 12.5-12.5S220.9 416 214 416c-104.2 0-189-87.7-189-195.5S109.8 25 214 25s189 87.7 189 195.5c0 67.7-30 109-58.1 125-14 8-28 9.8-36.6 4.7-8.8-5.2-10.5-16.6-10.4-25.3 0-.1 0-.1 0-.2V106.1c0-6.9-5.6-12.5-12.5-12.5s-12.5 5.6-12.5 12.5v37.5c-1.3-1.8-2.7-3.6-4.2-5.4-18.8-22.8-43.9-35.3-70.8-35.3s-52.1 12.5-70.8 35.3c-18.2 22.1-28.2 51.2-28.2 82.2 0 30.9 10 60.1 28.2 82.2 18.8 22.8 43.9 35.3 70.8 35.3s52.1-12.5 70.8-35.3c1.4-1.7 2.8-3.5 4.2-5.4v27.5c-.3 21.6 7.8 38.3 22.6 47.1 16.6 9.8 39.6 8.1 61.7-4.5 34.2-19.5 70.7-68.3 70.7-146.7.1-58.9-22.1-114.2-62.4-155.9zM197.9 312.9c-40.8 0-74.1-41.5-74.1-92.5s33.2-92.5 74.1-92.5c40.8 0 74.1 41.5 74.1 92.5s-33.3 92.5-74.1 92.5z" class="st0"/></svg>