<?xml version="1.0" encoding="UTF-8" standalone="no"?>
<svg
   xmlns:dc="http://purl.org/dc/elements/1.1/"
   xmlns:cc="http://creativecommons.org/ns#"
   xmlns:rdf="http://www.w3.org/1999/02/22-rdf-syntax-ns#"
   xmlns:svg="http://www.w3.org/2000/svg"
   xmlns="http://www.w3.org/2000/svg"
   viewBox="0 0 600 1000"
   height="200"
   width="200"
   xml:space="preserve"
   id="svg2"
   version="1.1"><metadata
     id="metadata8"><rdf:RDF><cc:Work
         rdf:about=""><dc:format>image/svg+xml</dc:format><dc:type
           rdf:resource="http://purl.org/dc/dcmitype/StillImage" /></cc:Work></rdf:RDF></metadata><defs
     id="defs6" /><g
     transform="matrix(1.3333333,0,0,-1.3333333,0,1066.6667)"
     id="g10"><g
       transform="scale(0.1)"
       id="g12"><path
         id="path14"
         style="fill:transparent;fill-opacity:1;fill-rule:nonzero;stroke:none"
         d="M 0,0 H 8000 V 8000 H 0 Z" /><path
         id="path16"
         style="fill:#187282;fill-opacity:1;fill-rule:nonzero;stroke:none"
         d="m 4266.27,4738.09 c -14.92,174.96 9.49,267.18 56.95,416.38 47.48,149.19 71.9,111.21 71.9,111.21 l -8.15,-369.82 c 0,-242.32 -120.7,-157.77 -120.7,-157.77 z m -91.62,197.53 c 0,0 -1290.22,15.9 -1522.81,-39.76 0,0 21.87,294.22 125.24,417.48 0,0 1329.97,121.27 1538.72,41.75 0,0 -105.37,-310.13 -141.15,-419.47 z m -218.2,-1016.06 c -12.15,-63.55 -50.47,-134.58 -164.5,-130.85 -114.03,3.74 -514.98,-37.39 -474.79,57.95 0,0 17.76,74.78 150.47,101.88 132.72,27.09 430.87,29.91 430.87,29.91 0,0 70.09,4.67 57.95,-58.89 z m 473.3,1334.98 c 22.5,-8.57 75.02,-36.43 75.02,-36.43 0,0 16.07,-16.07 17.14,-52.5 1.06,-36.44 0,-62.15 0,-62.15 h -111.6 l 0.16,40.71 v 95.37 c 0,0 -3.22,23.58 19.28,15 z m 366.17,-177.97 c 0,0 0.96,18.14 18.14,9.54 17.17,-8.59 61.1,-34.36 61.1,-34.36 0,0 11.44,-6.68 11.44,-39.14 0,-32.45 0,-254.87 0,-254.87 0,0 1.92,-22.92 -23.87,-22.92 -25.76,0 -37.16,3.27 -48.67,7.64 -10.9,4.14 -13.38,5.73 -18.14,42.96 -4.77,37.23 0,291.15 0,291.15 z M 4972.3,3894.96 c -4.53,51.54 -100.29,48.11 -100.29,48.11 l -515.37,-18.9 c -3.44,15.46 -22.34,80.74 -22.34,80.74 0,0 347.03,1.72 493.06,12.02 146.02,10.32 130.9,89.75 130.9,89.75 0,0 16.97,656.57 13.58,782.12 -3.38,125.54 -32.23,598.89 -44.11,697.29 -11.89,98.4 -11.87,222.24 -110.29,257.87 -98.4,35.63 -201.87,59.38 -274.82,66.17 -72.95,6.79 -658.28,0 -895.8,-40.72 -237.52,-40.71 -374.95,-74.66 -449.6,-218.87 -74.65,-144.21 -118.76,-132.33 -118.76,-132.33 -55.98,-8.48 -242.61,-54.29 -276.54,-71.26 -33.94,-16.96 -88.22,-79.74 -101.79,-135.72 -13.58,-55.99 27.14,-47.51 27.14,-47.51 -76.35,-154.38 -97.39,-371.55 -97.39,-371.55 -43.59,-11.96 -87.6,-29.73 -129.2,-49.7 v 228.04 c 0,14.2 -11.51,25.71 -25.71,25.71 h -68.62 c -14.2,0 -25.72,-11.51 -25.72,-25.71 v -287.09 c 0,-2.31 0.41,-4.5 0.98,-6.63 -67.23,-41.61 -112.53,-77.04 -112.53,-77.04 -60.76,-54.44 -101.5,-115.24 -128.67,-174.51 38.65,48.37 98.15,71.98 295.37,75.5 242.08,4.32 458.22,21.61 695.98,0 237.76,-21.61 190.21,-139.81 190.21,-216.88 0,-77.07 -47.55,-414.25 -95.1,-530.98 -20.47,-50.21 -21.57,-75.36 -35.47,-88.41 148.02,-17.63 786.18,8.51 786.18,8.51 22.95,97.93 31.22,116.48 48.42,169.74 17.16,53.25 155.88,276.6 263.63,36.41 105.68,-235.56 68.71,-575.52 68.71,-575.52 34.36,1.72 146.04,18.9 146.04,18.9 0,0 290.33,85.91 384.82,113.4 94.49,27.48 83.1,79.03 83.1,79.03 0,0 4.52,228.49 0,280.02" /><path
         id="path18"
         style="fill:#187282;fill-opacity:1;fill-rule:nonzero;stroke:none"
         d="m 2086.19,4230.62 c -73.35,-44.76 -119.75,-143.37 -148.35,-235.82 30.28,0.34 131.37,-1.88 151.03,-46.27 23.18,-52.34 16.07,-114.02 -17.58,-121.5 -29.05,-6.46 -140.31,3.31 -170.12,6.09 -3.93,-25.58 -5.47,-41.29 -5.47,-41.29 l 273.59,-5.38 c -27.55,31.12 -66.9,119.67 -80.42,370.73 0,0 -1.92,30.47 -2.68,73.44" /><path
         id="path20"
         style="fill:#187282;fill-opacity:1;fill-rule:nonzero;stroke:none"
         d="m 5008.52,4888.8 c 3.39,-125.55 -13.58,-782.12 -13.58,-782.12 0,0 3.93,-20.59 -11.48,-42.15 l 132.2,-2.59 v 1767.59 l -216.7,-13.31 c 53.97,-52.39 55.73,-149.75 65.43,-230.13 11.88,-98.4 40.73,-571.75 44.13,-697.29" /><path
         id="path22"
         style="fill:#187282;fill-opacity:1;fill-rule:nonzero;stroke:none"
         d="m 2200.48,3838.84 h 137.2 c 14.2,0 25.72,11.51 25.72,25.71 v 577.18 c 0,14.2 -11.52,25.72 -25.72,25.72 h -137.2 c -14.2,0 -25.71,-11.52 -25.71,-25.72 v -577.18 c 0,-14.2 11.51,-25.71 25.71,-25.71" /><path
         id="path24"
         style="fill:#187282;fill-opacity:1;fill-rule:nonzero;stroke:none"
         d="m 2972.97,3838.84 h 178.12 c 14.21,0 25.72,11.51 25.72,25.71 v 577.18 c 0,14.2 -11.51,25.72 -25.72,25.72 h -178.12 c -14.2,0 -25.71,-11.52 -25.71,-25.72 v -577.18 c 0,-14.2 11.51,-25.71 25.71,-25.71" /><path
         id="path26"
         style="fill:#187282;fill-opacity:1;fill-rule:nonzero;stroke:none"
         d="m 2416.06,3838.84 h 188.1 c 14.2,0 25.72,11.51 25.72,25.71 v 577.18 c 0,14.2 -11.52,25.72 -25.72,25.72 h -188.1 c -14.2,0 -25.72,-11.52 -25.72,-25.72 v -577.18 c 0,-14.2 11.52,-25.71 25.72,-25.71" /><path
         id="path28"
         style="fill:#187282;fill-opacity:1;fill-rule:nonzero;stroke:none"
         d="m 2691.52,3838.84 h 188.1 c 14.21,0 25.72,11.51 25.72,25.71 v 577.18 c 0,14.2 -11.51,25.72 -25.72,25.72 h -188.1 c -14.2,0 -25.71,-11.52 -25.71,-25.72 v -577.18 c 0,-14.2 11.51,-25.71 25.71,-25.71" /><path
         id="path30"
         style="fill:#187282;fill-opacity:1;fill-rule:nonzero;stroke:none"
         d="m 3450.41,3383.89 c 0,-16.08 -13.03,-29.1 -29.1,-29.1 h -158.08 c -16.07,0 -29.1,13.02 -29.1,29.1 v 93.83 c 0,16.08 13.03,29.11 29.1,29.11 h 158.08 c 16.07,0 29.1,-13.03 29.1,-29.11 z m -306.15,6.31 c -0.45,-18.29 -15.64,-32.74 -33.92,-32.29 l -173.83,4.29 c -18.27,0.45 -32.73,15.64 -32.28,33.92 l 2.29,92.97 c 0.45,18.28 15.64,32.74 33.92,32.29 l 173.82,-4.29 c 18.29,-0.45 32.74,-15.63 32.29,-33.93 z m -305,20.16 c -0.45,-16.06 -13.83,-28.72 -29.89,-28.28 l -363.36,10.04 c -16.06,0.45 -28.73,13.83 -28.29,29.89 l 2.44,88.14 c 0.44,16.06 13.83,28.73 29.89,28.28 l 363.36,-10.04 c 16.07,-0.44 28.73,-13.82 28.28,-29.89 z m -780.04,13.21 -85.95,4.96 c -14.17,0.81 -25.01,12.96 -24.19,27.14 l 4.76,82.79 c 0.82,14.18 12.97,25.02 27.15,24.2 l 85.95,-4.95 c 14.18,-0.81 25.01,-12.97 24.2,-27.14 l -4.77,-82.8 c -0.81,-14.18 -12.97,-25.01 -27.15,-24.2 z m 120.47,127.94 152.66,-6.79 c 16.06,-0.71 28.5,-14.3 27.79,-30.36 l -3.63,-81.65 c -0.72,-16.06 -14.31,-28.5 -30.37,-27.79 l -152.66,6.79 c -16.06,0.71 -28.49,14.31 -27.78,30.37 l 3.63,81.65 c 0.71,16.06 14.31,28.5 30.36,27.78 z m 1424.11,158.62 c -60.98,0 -946.3,20.32 -1213.46,29.35 -267.15,9.04 -518.79,27.15 -518.79,27.15 -11.3,-54.15 -6.78,-363.02 -6.78,-363.02 21.05,-12.85 111.35,-23.81 224.16,-32.76 32.1,-223.47 141.34,-388.05 271.25,-388.05 124.47,0 229.96,151.16 266.8,360.43 24.6,-0.82 38.83,-1.24 38.83,-1.24 0,0 793.44,-22.59 906.37,-22.59 112.92,0 196.49,13.56 196.49,13.56 l 196.6,10.65 c -18.31,190.1 12.31,394.77 12.31,394.77 -21.44,-3.36 -312.8,-28.25 -373.78,-28.25" /><path
         id="path32"
         style="fill:#187282;fill-opacity:1;fill-rule:nonzero;stroke:none"
         d="m 4161.78,4030.86 c -92.13,0 -166.79,-234.62 -166.79,-524.02 0,-289.42 74.66,-524.04 166.79,-524.04 92.11,0 166.77,234.62 166.77,524.04 0,289.4 -74.66,524.02 -166.77,524.02" /><path
         id="path34"
         style="fill:#187282;fill-opacity:1;fill-rule:nonzero;stroke:none"
         d="m 5158.65,4027.7 c -39.37,0 -71.29,-143.49 -71.29,-320.49 0,-177 31.92,-320.49 71.29,-320.49 39.38,0 71.29,143.49 71.29,320.49 0,177 -31.91,320.49 -71.29,320.49" /><path
         id="path36"
         style="fill:#187282;fill-opacity:1;fill-rule:nonzero;stroke:none"
         d="m 5319.75,4034.12 c -35.41,0 -64.11,-129 -64.11,-288.14 0,-159.13 28.7,-288.13 64.11,-288.13 35.39,0 64.08,129 64.08,288.13 0,159.14 -28.69,288.14 -64.08,288.14" /><path
         id="path38"
         style="fill:#187282;fill-opacity:1;fill-rule:nonzero;stroke:none"
         d="m 5960.02,4015.82 c -15.66,0 -28.36,-71.9 -28.36,-160.61 0,-88.69 12.7,-160.59 28.36,-160.59 15.66,0 28.36,71.9 28.36,160.59 0,88.71 -12.7,160.61 -28.36,160.61" /><path
         id="path40"
         style="fill:#187282;fill-opacity:1;fill-rule:nonzero;stroke:none"
         d="m 6017.52,4015.82 c -8.98,0 -16.29,-66.24 -16.29,-147.95 0,-81.7 7.31,-147.94 16.29,-147.94 9,0 16.29,66.24 16.29,147.94 0,81.71 -7.29,147.95 -16.29,147.95" /><path
         id="path42"
         style="fill:#187282;fill-opacity:1;fill-rule:nonzero;stroke:none"
         d="M 5147.81,5829.53 V 4061.94 l 1003.46,-34.24 v 846.31 l -1003.46,955.52" /><path
         id="path44"
         style="fill:#187282;fill-opacity:1;fill-rule:nonzero;stroke:none"
         d="m 5426.54,3772.5 482.97,104.09 c 0,0 -1.72,21.18 0.74,43.81 1.78,16.38 4.69,38.62 4.69,38.62 l -504.24,-17.04 c 10.02,-52.91 15.84,-169.48 15.84,-169.48" /><path
         id="path46"
         style="fill:#187282;fill-opacity:1;fill-rule:nonzero;stroke:none"
         d="m 6347.99,3838.84 c 0,0 -12.27,-15.06 -37.44,-41.38 -25.3,-26.16 -62.97,-64.22 -114.24,-109.07 -51.13,-44.96 -115.06,-97.74 -192.13,-153.38 -19.26,-13.92 -39.1,-28.38 -59.98,-42.58 -10.39,-7.18 -20.94,-14.47 -31.62,-21.85 -10.82,-7.19 -21.8,-14.47 -32.91,-21.85 -11.15,-7.31 -22.35,-14.92 -33.91,-22.25 -11.62,-7.19 -23.4,-14.49 -35.31,-21.86 -23.71,-14.97 -48.42,-29.52 -73.69,-44.35 -101.04,-59.34 -213.42,-119 -335.76,-174.79 -122.29,-55.89 -254.18,-108.63 -393.25,-155.57 -34.59,-12.3 -69.98,-23.07 -105.52,-34.29 -35.47,-11.48 -71.62,-21.55 -107.93,-31.91 -18.19,-5.14 -36.41,-10.3 -54.69,-15.47 -18.38,-4.75 -36.82,-9.53 -55.29,-14.3 -18.5,-4.72 -37.05,-9.45 -55.65,-14.19 -18.63,-4.57 -37.42,-8.6 -56.19,-12.94 -75.02,-17.59 -151.15,-32.98 -227.81,-47.02 -38.42,-6.53 -76.92,-13.07 -115.45,-19.61 -38.75,-5.22 -77.54,-10.45 -116.33,-15.69 -76.97,-9.51 -152.75,-21.46 -231.35,-26.76 -38.97,-3.28 -77.86,-6.56 -116.64,-9.82 -38.78,-3.12 -77.46,-6.76 -115.84,-7.66 -76.83,-2.87 -153.02,-6.77 -228.34,-7.89 -75.31,0.37 -149.71,0.76 -222.89,1.14 -73.08,3.32 -144.93,6.6 -215.27,9.8 -70.2,5.22 -138.8,11.25 -205.52,16.99 -33.37,2.89 -66.11,7.7 -98.44,11.35 -32.29,3.97 -64.08,7.89 -95.35,11.74 -15.63,1.82 -31.08,4.18 -46.36,6.72 -15.29,2.42 -30.44,4.84 -45.45,7.22 -30,4.77 -59.44,9.46 -88.28,14.05 -28.88,4.2 -56.87,10.39 -84.35,15.31 -27.43,5.25 -54.23,10.39 -80.35,15.41 -52.12,10.65 -101.2,22.61 -147.43,32.83 -23.16,4.95 -45.28,11.23 -66.77,16.49 -21.47,5.38 -42.12,10.75 -61.92,16 -39.57,10.73 -75.63,21.67 -108.29,30.96 -32.58,9.69 -61.43,19.16 -86.53,27.25 -24.94,8.61 -46.16,15.92 -63.36,21.86 -34.21,12.43 -52.14,19.79 -52.14,19.79 0,0 4.69,-1.21 13.79,-3.53 9.12,-2.18 22.65,-5.42 40.31,-9.65 17.7,-3.93 39.53,-8.79 65.2,-14.49 25.75,-5.25 55.34,-11.3 88.47,-18.07 33.29,-6.05 69.95,-13.39 110.09,-20.18 40.3,-6.12 83.46,-14.48 129.96,-21.36 46.59,-6.44 95.92,-14.35 148.22,-20.72 52.38,-5.8 107.12,-13.86 164.58,-19.64 28.73,-2.74 58.07,-5.53 87.97,-8.37 14.93,-1.43 30.01,-2.86 45.22,-4.31 15.2,-1.55 30.56,-2.92 46.1,-3.74 62.11,-3.77 126.12,-9.38 192.07,-12.82 66.03,-2.31 133.74,-5.95 202.99,-8.1 69.26,-0.78 140.03,-1.57 212,-2.37 71.91,1.53 145.02,3.07 219.03,4.64 18.5,0.04 37.02,1.54 55.6,2.55 18.58,1.09 37.21,2.19 55.88,3.28 37.34,2.01 74.88,4.04 112.56,6.07 37.8,1.38 75.23,5.47 112.86,9.04 37.63,3.46 75.38,6.95 113.2,10.44 75.3,5.22 152.49,17.8 229.09,27.5 37.93,4.93 75.84,9.85 113.73,14.77 37.71,6.23 75.41,12.45 113.01,18.66 74.96,13.69 149.74,26.98 223.24,43.38 18.4,3.99 36.83,7.67 55.1,11.89 18.24,4.34 36.42,8.67 54.57,13 18.18,4.25 36.28,8.49 54.37,12.73 17.97,4.65 35.88,9.28 53.75,13.9 35.7,9.3 71.27,18.33 106.17,28.76 34.94,10.21 69.96,19.36 104.08,30.39 137.21,41.85 268.13,88.1 390.24,137.24 122.07,49.18 235.7,100.49 338.44,152.33 102.54,52.2 194.86,103.67 274.88,152.5 79.78,49.14 148.05,94.42 202.71,133.95 54.55,39.69 96.59,72.25 124.36,95.54 27.91,23.14 42.13,36.36 42.13,36.36" /><g
         transform="scale(10)"
         id="g48">
</g></g></g></svg>