<svg xmlns="http://www.w3.org/2000/svg" width="22" height="38"><filter filterUnits="objectBoundingBox" x="0" y="0" width="100" height="100" id="a"><feFlood flood-color="#655F60" result="coFloodOut1"/><feComposite in="coFloodOut1" in2="SourceAlpha" operator="in" result="coOverlay1"/><feBlend in="coOverlay1" in2="SourceGraphic" result="colorOverlay1"/></filter><path d="M21.52 1.99L2.42 19l19.1 17.01c.47.29.63.95.36 1.46s-.87.68-1.34.39L.48 19.99c-.3-.19-.46-.54-.47-.89-.01-.04 0-.07-.01-.1.01-.03 0-.07.01-.1.01-.36.17-.7.47-.89L20.54.14c.47-.29 1.07-.12 1.34.39s.11 1.16-.36 1.46z" fill="#E5E5E5" filter="url(#a)"/></svg>