<svg xmlns="http://www.w3.org/2000/svg" width="32" height="32"><filter filterUnits="objectBoundingBox" x="0" y="0" width="100" height="100" id="a"><feFlood flood-color="#EBEBEB" result="coFloodOut1"/><feComposite in="coFloodOut1" in2="SourceAlpha" operator="in" result="coOverlay1"/><feBlend in="coOverlay1" in2="SourceGraphic" result="colorOverlay1"/></filter><path d="M16 32C7.16 32 0 24.84 0 16S7.16 0 16 0s16 7.16 16 16-7.16 16-16 16zm-1.95-16.59c1.07-.49 1.67-1.29 1.67-2.44 0-2.18-1.58-2.97-3.93-2.97H6v11.77h5.96c2.23 0 4.35-1.02 4.35-3.39 0-1.46-.76-2.56-2.26-2.97zm10.11-4.62h-4.94v1.57h4.94v-1.57zm-2.66 2.28c-2.7 0-4.57 1.93-4.57 4.47 0 2.63 1.76 4.46 4.57 4.46 2.02 0 3.59-1.05 4.28-3.05h-2.16c-.15.53-1.05 1.3-2.03 1.3-1.36 0-2.12-.95-2.19-2.42h6.43c.17-2.6-1.3-4.76-4.33-4.76zm-.07 1.76c1.19 0 1.73.3 1.95 1.48H19.4c.03-.66.48-1.48 2.03-1.48zm-9.83 5.04H8.47v-3.21h3.18c1.16 0 1.87.47 1.87 1.67 0 1.21-.85 1.54-1.92 1.54zm-.15-5.16H8.47v-2.74h2.77c.97 0 1.86.23 1.86 1.35 0 .98-.7 1.39-1.65 1.39z" fill="#0187F5" filter="url(#a)"/></svg>