<svg xmlns="http://www.w3.org/2000/svg" width="32" height="32"><filter filterUnits="objectBoundingBox" x="0" y="0" width="100" height="100" id="a"><feFlood flood-color="#EBEBEB" result="coFloodOut1"/><feComposite in="coFloodOut1" in2="SourceAlpha" operator="in" result="coOverlay1"/><feBlend in="coOverlay1" in2="SourceGraphic" result="colorOverlay1"/></filter><path d="M16 32.01c-.57 0-1.14-.03-1.69-.09 2.57-1.26 3.94-3.44 3.94-5.62 0-2.45-1.37-3.65-2.88-4.96l-1.23-1c-.37-.31-.89-.74-.89-1.52s.52-1.28.96-1.74c1.44-1.17 2.87-2.41 2.87-5.03 0-2.69-1.64-4.11-2.43-4.78h2.13l2.18-1.28h-7.04c-1.85 0-4.17.28-6.13 1.95-1.47 1.31-2.18 3.12-2.18 4.75 0 2.76 2.05 5.56 5.67 5.56.35 0 .72-.03 1.1-.07-.17.43-.34.78-.34 1.39 0 1.09.54 1.77 1.02 2.41-1.54.1-4.41.28-6.53 1.63-.73.44-1.27.97-1.67 1.51C1.06 22.53 0 19.39 0 16 0 7.17 7.16 0 16 0s16 7.17 16 16c0 8.84-7.16 16.01-16 16.01zM26.91 9h-3V6h-2v3h-3v2h3v3h2v-3h3V9zm-20.3 1.95c0-.92.18-1.88.76-2.62.55-.71 1.5-1.17 2.39-1.17 2.84 0 4.31 3.97 4.31 6.52 0 .64-.07 1.77-.85 2.59-.55.57-1.47.99-2.33.99-2.94 0-4.28-3.93-4.28-6.31zm1.24 12.59c1.43-.5 3.28-.57 3.59-.57.34 0 .51 0 .79.03 2.6 1.92 3.72 2.87 3.72 4.68 0 1.98-1.42 3.48-4.09 3.77-2.63-.7-5-2.06-6.91-3.89-.01-.12-.05-.24-.05-.37 0-2.52 2.19-3.37 2.95-3.65z" fill="#D94935" filter="url(#a)"/></svg>