<svg xmlns="http://www.w3.org/2000/svg" width="32" height="32"><filter filterUnits="objectBoundingBox" x="0" y="0" width="100" height="100" id="a"><feFlood flood-color="#EBEBEB" result="coFloodOut1"/><feComposite in="coFloodOut1" in2="SourceAlpha" operator="in" result="coOverlay1"/><feBlend in="coOverlay1" in2="SourceGraphic" result="colorOverlay1"/></filter><path d="M16 32C7.16 32 0 24.84 0 16S7.16 0 16 0s16 7.16 16 16-7.16 16-16 16zM9.79 7.47C9.47 7.16 9.08 7 8.63 7c-.44 0-.83.15-1.15.46-.31.31-.47.68-.47 1.11 0 .45.16.83.48 1.15.32.31.71.47 1.16.47.45 0 .83-.15 1.14-.46.32-.31.48-.69.48-1.13 0-.44-.16-.82-.48-1.13zm.48 3.52H7V23h3.27V10.99zM25 15.44c0-1.42-.49-2.5-1.35-3.22-1.03-.86-2.04-1.28-3.51-1.28-.71 0-1.18.11-1.86.34-.69.24-1.43.72-2.28 1.31v-1.6h-3.27V23h3.26v-4.36c0-1.28.05-2.12.16-2.5.21-.74.58-1.32 1.12-1.74.54-.42 1.19-.63 1.94-.63.58 0 1.06.13 1.46.38.39.25.67.62.83 1.11.16.48.24 1.46.24 2.93V23H25v-7.56z" fill="#005987" filter="url(#a)"/></svg>