<svg xmlns="http://www.w3.org/2000/svg" width="32" height="32"><filter filterUnits="objectBoundingBox" x="0" y="0" width="100" height="100" id="a"><feFlood flood-color="#EBEBEB" result="coFloodOut1"/><feComposite in="coFloodOut1" in2="SourceAlpha" operator="in" result="coOverlay1"/><feBlend in="coOverlay1" in2="SourceGraphic" result="colorOverlay1"/></filter><path d="M16 32C7.16 32 0 24.84 0 16S7.16 0 16 0s16 7.16 16 16-7.16 16-16 16zm9.4-23.39c-.71.46-1.5.8-2.35.98-.67-.79-1.63-1.28-2.69-1.28-2.04 0-3.69 1.81-3.69 4.04 0 .32.03.62.09.92-3.07-.17-5.79-1.78-7.61-4.22-.32.6-.5 1.29-.5 2.03 0 1.4.65 2.64 1.64 3.36-.6-.02-1.17-.2-1.67-.5v.05c0 1.96 1.27 3.59 2.96 3.96a3.5 3.5 0 0 1-1.67.07c.47 1.6 1.84 2.77 3.45 2.8-1.26 1.09-2.85 1.73-4.58 1.73-.3 0-.6-.02-.88-.05 1.63 1.14 3.57 1.81 5.66 1.81 6.79 0 10.5-6.15 10.5-11.49 0-.18 0-.35-.01-.52a7.79 7.79 0 0 0 1.85-2.1c-.67.33-1.38.54-2.12.64.76-.5 1.34-1.29 1.62-2.23z" fill="#4D9DDB" filter="url(#a)"/></svg>